<svg class="diagram-root" style="background: #f5f6f6" xmlns="http://www.w3.org/2000/svg" xmlns:xlink="http://www.w3.org/1999/xlink"><style>.diagram-root { font-family: "Helvetica Neue", sans-serif; font-size: 12px; } .t { overflow: visible; } .t-bg { y: 40; fill: #fff;   } .th { fill: #005aa0;   } .tht { fill: #fff; font-size: 14px;  } .tf { fill: #323c46; overflow: visible; } .tf.pk { fill: #005aa0; font-weight: bold; } .tf.fk { font-weight: bold; } .ty { fill: #adb1b5; font-weight: normal; text-anchor: end; } .r { fill: transparent; stroke: #c3c3c3; stroke-width: 1; } .l { stroke: 1; } .i { fill: #c2c7ce; stroke: #c2c7ce; } .i.ix { fill: #afb3b6; stroke: #000; } .fa { fill: transparent; overflow: visible; } .fa .bg.hover { fill: #f7f7f7; } .c { cy: 12; r: 4; stroke: #d2d2dc; fill: #d2d2dc; } .hr { fill: transparent; stroke: #323c46; stroke-opacity: 0.035; stroke-width: 13; } .dc { stroke: #fa5a3c; fill: #fa5a3c; } .x { stroke: white; stroke-width: 1; } .hl .th { fill: #1b9bff; } .hl .tht {  } .fhl .bg { fill: #e7f4ff; } .fhls .bg {  } .r.hl { stroke: #1b9bff; } .dim { opacity: 0.25; }</style><g class="drawing-wrapper" transform="translate(-75, -48) scale(1,1)"><g class="rs"></g><g class="hrs"></g><g class="ts"><svg width="159.81" height="225" x="385" y="233" id="h1639608377" class="t"><rect height="40" width="159.81" class="th"></rect><text x="13" y="25" class="tht">employees</text><rect height="185" width="159.81" class="t-bg"></rect><text x="13" y="61" class="tf pk">emp_no<tspan x="146.81" class="ty">int</tspan></text><path d="M7,14A2,2 0 0,1 5,12A2,2 0 0,1 7,10A2,2 0 0,1 9,12A2,2 0 0,1 7,14M12.65,10C11.83,7.67 9.61,6 7, 6A6, 6 0 0, 0 1, 12A6, 6 0 0, 0 7, 18C9.61, 18 11.83, 16.33 12.65, 14H17V18H21V14H23V10H12.65Z" class="i pk" transform="translate(114.136171875, 48) scale(0.65)"></path><text x="13" y="86" class="tf">emp_title_id<tspan x="146.81" class="ty">int</tspan></text><text x="13" y="111" class="tf">birth_date<tspan x="146.81" class="ty">DATE</tspan></text><text x="13" y="136" class="tf">first_name<tspan x="146.81" class="ty">VARCHAR</tspan></text><text x="13" y="161" class="tf">last_name<tspan x="146.81" class="ty">VARCHAR</tspan></text><text x="13" y="186" class="tf">sex<tspan x="146.81" class="ty">VARCHAR</tspan></text><text x="13" y="211" class="tf">hire_date<tspan x="146.81" class="ty">DATE</tspan></text></svg><svg width="122.46" height="100" x="97" y="346" id="h311790747" class="t"><rect height="40" width="122.46" class="th"></rect><text x="13" y="25" class="tht">titles</text><rect height="60" width="122.46" class="t-bg"></rect><text x="13" y="61" class="tf">title_id<tspan x="109.46" class="ty">int</tspan></text><text x="13" y="86" class="tf">title<tspan x="109.46" class="ty">VARCHAR</tspan></text></svg><svg width="114.03" height="100" x="420" y="571" id="h2472833127" class="t"><rect height="40" width="114.03" class="th"></rect><text x="13" y="25" class="tht">salaries</text><rect height="60" width="114.03" class="t-bg"></rect><text x="13" y="61" class="tf">emp_no<tspan x="101.03" class="ty">int</tspan></text><text x="13" y="86" class="tf">salary<tspan x="101.03" class="ty">money</tspan></text></svg><svg width="163.83" height="100" x="193" y="78" id="h475896179" class="t"><rect height="40" width="163.83" class="th"></rect><text x="13" y="25" class="tht">departments</text><rect height="60" width="163.83" class="t-bg"></rect><text x="13" y="61" class="tf">dept_no<tspan x="150.83" class="ty">int</tspan></text><text x="13" y="86" class="tf">dept_name<tspan x="150.83" class="ty">VARCHAR</tspan></text></svg><svg width="102.05" height="100" x="723" y="392" id="h2574555420" class="t"><rect height="40" width="102.05" class="th"></rect><text x="13" y="25" class="tht">dept_empl</text><rect height="60" width="102.05" class="t-bg"></rect><text x="13" y="61" class="tf fk">emp_no<tspan x="89.05" class="ty">int</tspan></text><text x="13" y="86" class="tf fk">dept_no<tspan x="89.05" class="ty">int</tspan></text></svg><svg width="102.05" height="100" x="596" y="84" id="h1991484534" class="t"><rect height="40" width="102.05" class="th"></rect><text x="13" y="25" class="tht">dept_man</text><rect height="60" width="102.05" class="t-bg"></rect><text x="13" y="61" class="tf fk">dept_no<tspan x="89.05" class="ty">int</tspan></text><text x="13" y="86" class="tf fk">emp_no<tspan x="89.05" class="ty">int</tspan></text></svg></g></g><text class="qdbd-link" x="10" y="20">www.quickdatabasediagrams.com</text></svg>