<svg class="diagram-root" style="background: #f5f6f6" xmlns="http://www.w3.org/2000/svg" xmlns:xlink="http://www.w3.org/1999/xlink"><style>.diagram-root { font-family: "Helvetica Neue", sans-serif; font-size: 12px; } .t { overflow: visible; } .t-bg { y: 40; fill: #fff;   } .th { fill: #005aa0;   } .tht { fill: #fff; font-size: 14px;  } .tf { fill: #323c46; overflow: visible; } .tf.pk { fill: #005aa0; font-weight: bold; } .tf.fk { font-weight: bold; } .ty { fill: #adb1b5; font-weight: normal; text-anchor: end; } .r { fill: transparent; stroke: #c3c3c3; stroke-width: 1; } .l { stroke: 1; } .i { fill: #c2c7ce; stroke: #c2c7ce; } .i.ix { fill: #afb3b6; stroke: #000; } .fa { fill: transparent; overflow: visible; } .fa .bg.hover { fill: #f7f7f7; } .c { cy: 12; r: 4; stroke: #d2d2dc; fill: #d2d2dc; } .hr { fill: transparent; stroke: #323c46; stroke-opacity: 0.035; stroke-width: 13; } .dc { stroke: #fa5a3c; fill: #fa5a3c; } .x { stroke: white; stroke-width: 1; } .hl .th { fill: #1b9bff; } .hl .tht {  } .fhl .bg { fill: #e7f4ff; } .fhls .bg {  } .r.hl { stroke: #1b9bff; } .dim { opacity: 0.25; }</style><g class="drawing-wrapper" transform="translate(101.55555555555559, 254.88888888888886) scale(1,1)"><g class="rs"><path d="M 426.6622222222224 390.33777777777743 m -1, 0 a 1,1 0 1,0 2,0 a 1,1 0 1,0 -2,0 M 426.6622222222224 390.33777777777743 m -0.5, 0 a 0.5,0.5 0 1,0 1,0 a 0.5,0.5 0 1,0 -1,0  M426.6622222222224 390.33777777777743 L426.6622222222224 390.33777777777743 414.6622222222224 390.33777777777743 M420.6622222222224 396.33777777777743 L420.6622222222224 396.33777777777743 420.6622222222224 384.33777777777743 M414.6622222222224 390.33777777777743 Q 319.62 390.33777777777743, 224.58 160.34 T 34.489999999999995 -69.66666666666677 M 22.49 -69.66666666666677 m -1, 0 a 1,1 0 1,0 2,0 a 1,1 0 1,0 -2,0 M 22.49 -69.66666666666677 m -0.5, 0 a 0.5,0.5 0 1,0 1,0 a 0.5,0.5 0 1,0 -1,0  M22.49 -69.66666666666677 L22.49 -69.66666666666677 34.489999999999995 -69.66666666666677 M28.49 -63.66666666666677 L28.49 -63.66666666666677 28.49 -75.66666666666677" id="h2739598464" class="r"></path><path d="M 586.47 390.33777777777743 m -1, 0 a 1,1 0 1,0 2,0 a 1,1 0 1,0 -2,0 M 586.47 390.33777777777743 m -0.5, 0 a 0.5,0.5 0 1,0 1,0 a 0.5,0.5 0 1,0 -1,0  M586.47 390.33777777777743 L586.47 390.33777777777743 598.47 390.33777777777743 M592.47 396.33777777777743 L592.47 396.33777777777743 592.47 384.33777777777743 M598.47 390.33777777777743 Q 671.27 390.33777777777743, 744.07 136.22 T 889.6666666666666 -117.88888888888886 M 901.6666666666666 -117.88888888888886 m -1, 0 a 1,1 0 1,0 2,0 a 1,1 0 1,0 -2,0 M 901.6666666666666 -117.88888888888886 m -0.5, 0 a 0.5,0.5 0 1,0 1,0 a 0.5,0.5 0 1,0 -1,0  M901.6666666666666 -117.88888888888886 L901.6666666666666 -117.88888888888886 889.6666666666666 -117.88888888888886 M895.6666666666666 -111.88888888888886 L895.6666666666666 -111.88888888888886 895.6666666666666 -123.88888888888886" id="h3770386641" class="r"></path><path d="M 586.47 390.33777777777743 m -1, 0 a 1,1 0 1,0 2,0 a 1,1 0 1,0 -2,0 M 586.47 390.33777777777743 m -0.5, 0 a 0.5,0.5 0 1,0 1,0 a 0.5,0.5 0 1,0 -1,0  M586.47 390.33777777777743 L586.47 390.33777777777743 598.47 390.33777777777743 M592.47 396.33777777777743 L592.47 396.33777777777743 592.47 384.33777777777743 M598.47 390.33777777777743 Q 643.35 390.33777777777743, 688.23 543.45 T 777.9999999999998 696.5555555555557 M 789.9999999999998 696.5555555555557 m -1, 0 a 1,1 0 1,0 2,0 a 1,1 0 1,0 -2,0 M 789.9999999999998 696.5555555555557 m -0.5, 0 a 0.5,0.5 0 1,0 1,0 a 0.5,0.5 0 1,0 -1,0  M789.9999999999998 696.5555555555557 L789.9999999999998 696.5555555555557 777.9999999999998 696.5555555555557 M783.9999999999998 702.5555555555557 L783.9999999999998 702.5555555555557 783.9999999999998 690.5555555555557" id="h133127050" class="r"></path><path d="M 426.6622222222224 390.33777777777743 m -1, 0 a 1,1 0 1,0 2,0 a 1,1 0 1,0 -2,0 M 426.6622222222224 390.33777777777743 m -0.5, 0 a 0.5,0.5 0 1,0 1,0 a 0.5,0.5 0 1,0 -1,0  M426.6622222222224 390.33777777777743 L426.6622222222224 390.33777777777743 414.6622222222224 390.33777777777743 M420.6622222222224 396.33777777777743 L420.6622222222224 396.33777777777743 420.6622222222224 384.33777777777743 M414.6622222222224 390.33777777777743 Q 374.34 390.33777777777743, 334.01 519.45 T 253.35 648.5555555555557 M 241.35 648.5555555555557 m -1, 0 a 1,1 0 1,0 2,0 a 1,1 0 1,0 -2,0 M 241.35 648.5555555555557 m -0.5, 0 a 0.5,0.5 0 1,0 1,0 a 0.5,0.5 0 1,0 -1,0  M241.35 648.5555555555557 L241.35 648.5555555555557 253.35 648.5555555555557 M247.35 654.5555555555557 L247.35 654.5555555555557 247.35 642.5555555555557" id="h1615141195" class="r"></path><path d="M 426.6622222222224 240.33777777777746 m -1, 0 a 1,1 0 1,0 2,0 a 1,1 0 1,0 -2,0 M 426.6622222222224 240.33777777777746 m -0.5, 0 a 0.5,0.5 0 1,0 1,0 a 0.5,0.5 0 1,0 -1,0  M426.6622222222224 240.33777777777746 L426.6622222222224 240.33777777777746 414.6622222222224 240.33777777777746 M 426.6622222222224 246.33777777777746 m -1, 0 a 1,1 0 1,0 2,0 a 1,1 0 1,0 -2,0 M 426.6622222222224 246.33777777777746 m -0.5, 0 a 0.5,0.5 0 1,0 1,0 a 0.5,0.5 0 1,0 -1,0  M426.6622222222224 246.33777777777746 L426.6622222222224 246.33777777777746 419.6622222222224 240.33777777777746 426.6622222222224 234.33777777777746 M 426.6622222222224 234.33777777777746 m -1, 0 a 1,1 0 1,0 2,0 a 1,1 0 1,0 -2,0 M 426.6622222222224 234.33777777777746 m -0.5, 0 a 0.5,0.5 0 1,0 1,0 a 0.5,0.5 0 1,0 -1,0  M414.6622222222224 240.33777777777746 Q 374.34 240.33777777777746, 334.01 419.45 T 253.35 598.5555555555557 M 241.35 598.5555555555557 m -1, 0 a 1,1 0 1,0 2,0 a 1,1 0 1,0 -2,0 M 241.35 598.5555555555557 m -0.5, 0 a 0.5,0.5 0 1,0 1,0 a 0.5,0.5 0 1,0 -1,0  M241.35 598.5555555555557 L241.35 598.5555555555557 253.35 598.5555555555557 M247.35 604.5555555555557 L247.35 604.5555555555557 247.35 592.5555555555557" id="h1537058300" class="r"></path><path d="M 789.9999999999998 646.5555555555557 m -1, 0 a 1,1 0 1,0 2,0 a 1,1 0 1,0 -2,0 M 789.9999999999998 646.5555555555557 m -0.5, 0 a 0.5,0.5 0 1,0 1,0 a 0.5,0.5 0 1,0 -1,0  M789.9999999999998 646.5555555555557 L789.9999999999998 646.5555555555557 777.9999999999998 646.5555555555557 M 789.9999999999998 652.5555555555557 m -1, 0 a 1,1 0 1,0 2,0 a 1,1 0 1,0 -2,0 M 789.9999999999998 652.5555555555557 m -0.5, 0 a 0.5,0.5 0 1,0 1,0 a 0.5,0.5 0 1,0 -1,0  M789.9999999999998 652.5555555555557 L789.9999999999998 652.5555555555557 782.9999999999998 646.5555555555557 789.9999999999998 640.5555555555557 M 789.9999999999998 640.5555555555557 m -1, 0 a 1,1 0 1,0 2,0 a 1,1 0 1,0 -2,0 M 789.9999999999998 640.5555555555557 m -0.5, 0 a 0.5,0.5 0 1,0 1,0 a 0.5,0.5 0 1,0 -1,0  M777.9999999999998 646.5555555555557 Q 733.11 646.5555555555557, 688.23 430.95 T 598.47 215.33777777777746 M 586.47 215.33777777777746 m -1, 0 a 1,1 0 1,0 2,0 a 1,1 0 1,0 -2,0 M 586.47 215.33777777777746 m -0.5, 0 a 0.5,0.5 0 1,0 1,0 a 0.5,0.5 0 1,0 -1,0  M586.47 215.33777777777746 L586.47 215.33777777777746 598.47 215.33777777777746 M592.47 221.33777777777746 L592.47 221.33777777777746 592.47 209.33777777777746" id="h3177548053" class="r"></path><path d="M 430.88888888888886 -6.444444444444443 m -1, 0 a 1,1 0 1,0 2,0 a 1,1 0 1,0 -2,0 M 430.88888888888886 -6.444444444444443 m -0.5, 0 a 0.5,0.5 0 1,0 1,0 a 0.5,0.5 0 1,0 -1,0  M430.88888888888886 -6.444444444444443 L430.88888888888886 -6.444444444444443 418.88888888888886 -6.444444444444443 M424.88888888888886 -0.44444444444444287 L424.88888888888886 -0.44444444444444287 424.88888888888886 -12.444444444444443 M418.88888888888886 -6.444444444444443 C 362.1262222222225 -6.444444444444443, 364.6622222222224 390.33777777777743, 414.6622222222224 390.33777777777743 M 426.6622222222224 390.33777777777743 m -1, 0 a 1,1 0 1,0 2,0 a 1,1 0 1,0 -2,0 M 426.6622222222224 390.33777777777743 m -0.5, 0 a 0.5,0.5 0 1,0 1,0 a 0.5,0.5 0 1,0 -1,0  M426.6622222222224 390.33777777777743 L426.6622222222224 390.33777777777743 414.6622222222224 390.33777777777743 M420.6622222222224 396.33777777777743 L420.6622222222224 396.33777777777743 420.6622222222224 384.33777777777743" id="h2876614111" class="r"></path><path d="M 594.72 -6.444444444444443 m -1, 0 a 1,1 0 1,0 2,0 a 1,1 0 1,0 -2,0 M 594.72 -6.444444444444443 m -0.5, 0 a 0.5,0.5 0 1,0 1,0 a 0.5,0.5 0 1,0 -1,0  M594.72 -6.444444444444443 L594.72 -6.444444444444443 606.72 -6.444444444444443 M600.72 -0.44444444444444287 L600.72 -0.44444444444444287 600.72 -12.444444444444443 M606.72 -6.444444444444443 Q 677.46 -6.444444444444443, 748.19 -62.17 T 889.6666666666666 -117.88888888888886 M 901.6666666666666 -117.88888888888886 m -1, 0 a 1,1 0 1,0 2,0 a 1,1 0 1,0 -2,0 M 901.6666666666666 -117.88888888888886 m -0.5, 0 a 0.5,0.5 0 1,0 1,0 a 0.5,0.5 0 1,0 -1,0  M901.6666666666666 -117.88888888888886 L901.6666666666666 -117.88888888888886 889.6666666666666 -117.88888888888886 M895.6666666666666 -111.88888888888886 L895.6666666666666 -111.88888888888886 895.6666666666666 -123.88888888888886" id="h2076776228" class="r"></path><path d="M 430.88888888888886 -6.444444444444443 m -1, 0 a 1,1 0 1,0 2,0 a 1,1 0 1,0 -2,0 M 430.88888888888886 -6.444444444444443 m -0.5, 0 a 0.5,0.5 0 1,0 1,0 a 0.5,0.5 0 1,0 -1,0  M430.88888888888886 -6.444444444444443 L430.88888888888886 -6.444444444444443 418.88888888888886 -6.444444444444443 M424.88888888888886 -0.44444444444444287 L424.88888888888886 -0.44444444444444287 424.88888888888886 -12.444444444444443 M418.88888888888886 -6.444444444444443 Q 322.79 -6.444444444444443, 226.69 -38.06 T 34.489999999999995 -69.66666666666677 M 22.49 -69.66666666666677 m -1, 0 a 1,1 0 1,0 2,0 a 1,1 0 1,0 -2,0 M 22.49 -69.66666666666677 m -0.5, 0 a 0.5,0.5 0 1,0 1,0 a 0.5,0.5 0 1,0 -1,0  M22.49 -69.66666666666677 L22.49 -69.66666666666677 34.489999999999995 -69.66666666666677 M28.49 -63.66666666666677 L28.49 -63.66666666666677 28.49 -75.66666666666677" id="h3425584194" class="r"></path><path d="M 22.49 -119.66666666666677 m -1, 0 a 1,1 0 1,0 2,0 a 1,1 0 1,0 -2,0 M 22.49 -119.66666666666677 m -0.5, 0 a 0.5,0.5 0 1,0 1,0 a 0.5,0.5 0 1,0 -1,0  M22.49 -119.66666666666677 L22.49 -119.66666666666677 34.489999999999995 -119.66666666666677 M 22.49 -113.66666666666677 m -1, 0 a 1,1 0 1,0 2,0 a 1,1 0 1,0 -2,0 M 22.49 -113.66666666666677 m -0.5, 0 a 0.5,0.5 0 1,0 1,0 a 0.5,0.5 0 1,0 -1,0  M22.49 -113.66666666666677 L22.49 -113.66666666666677 29.49 -119.66666666666677 22.49 -125.66666666666677 M 22.49 -125.66666666666677 m -1, 0 a 1,1 0 1,0 2,0 a 1,1 0 1,0 -2,0 M 22.49 -125.66666666666677 m -0.5, 0 a 0.5,0.5 0 1,0 1,0 a 0.5,0.5 0 1,0 -1,0  M34.489999999999995 -119.66666666666677 Q 129.54 -119.66666666666677, 224.58 47.84 T 414.6622222222224 215.33777777777746 M 426.6622222222224 215.33777777777746 m -1, 0 a 1,1 0 1,0 2,0 a 1,1 0 1,0 -2,0 M 426.6622222222224 215.33777777777746 m -0.5, 0 a 0.5,0.5 0 1,0 1,0 a 0.5,0.5 0 1,0 -1,0  M426.6622222222224 215.33777777777746 L426.6622222222224 215.33777777777746 414.6622222222224 215.33777777777746 M420.6622222222224 221.33777777777746 L420.6622222222224 221.33777777777746 420.6622222222224 209.33777777777746" id="h185473356" class="r"></path><path d="M 22.49 -94.66666666666677 m -1, 0 a 1,1 0 1,0 2,0 a 1,1 0 1,0 -2,0 M 22.49 -94.66666666666677 m -0.5, 0 a 0.5,0.5 0 1,0 1,0 a 0.5,0.5 0 1,0 -1,0  M22.49 -94.66666666666677 L22.49 -94.66666666666677 34.489999999999995 -94.66666666666677 M 22.49 -88.66666666666677 m -1, 0 a 1,1 0 1,0 2,0 a 1,1 0 1,0 -2,0 M 22.49 -88.66666666666677 m -0.5, 0 a 0.5,0.5 0 1,0 1,0 a 0.5,0.5 0 1,0 -1,0  M22.49 -88.66666666666677 L22.49 -88.66666666666677 29.49 -94.66666666666677 22.49 -100.66666666666677 M 22.49 -100.66666666666677 m -1, 0 a 1,1 0 1,0 2,0 a 1,1 0 1,0 -2,0 M 22.49 -100.66666666666677 m -0.5, 0 a 0.5,0.5 0 1,0 1,0 a 0.5,0.5 0 1,0 -1,0  M34.489999999999995 -94.66666666666677 Q 130.59 -94.66666666666677, 226.69 -75.56 T 418.88888888888886 -56.44444444444444 M 430.88888888888886 -56.44444444444444 m -1, 0 a 1,1 0 1,0 2,0 a 1,1 0 1,0 -2,0 M 430.88888888888886 -56.44444444444444 m -0.5, 0 a 0.5,0.5 0 1,0 1,0 a 0.5,0.5 0 1,0 -1,0  M430.88888888888886 -56.44444444444444 L430.88888888888886 -56.44444444444444 418.88888888888886 -56.44444444444444 M424.88888888888886 -50.44444444444444 L424.88888888888886 -50.44444444444444 424.88888888888886 -62.44444444444444" id="h3624247387" class="r"></path><path d="M 901.6666666666666 -167.88888888888886 m -1, 0 a 1,1 0 1,0 2,0 a 1,1 0 1,0 -2,0 M 901.6666666666666 -167.88888888888886 m -0.5, 0 a 0.5,0.5 0 1,0 1,0 a 0.5,0.5 0 1,0 -1,0  M901.6666666666666 -167.88888888888886 L901.6666666666666 -167.88888888888886 889.6666666666666 -167.88888888888886 M 901.6666666666666 -161.88888888888886 m -1, 0 a 1,1 0 1,0 2,0 a 1,1 0 1,0 -2,0 M 901.6666666666666 -161.88888888888886 m -0.5, 0 a 0.5,0.5 0 1,0 1,0 a 0.5,0.5 0 1,0 -1,0  M901.6666666666666 -161.88888888888886 L901.6666666666666 -161.88888888888886 894.6666666666666 -167.88888888888886 901.6666666666666 -173.88888888888886 M 901.6666666666666 -173.88888888888886 m -1, 0 a 1,1 0 1,0 2,0 a 1,1 0 1,0 -2,0 M 901.6666666666666 -173.88888888888886 m -0.5, 0 a 0.5,0.5 0 1,0 1,0 a 0.5,0.5 0 1,0 -1,0  M889.6666666666666 -167.88888888888886 Q 818.93 -167.88888888888886, 748.19 -112.17 T 606.72 -56.44444444444444 M 594.72 -56.44444444444444 m -1, 0 a 1,1 0 1,0 2,0 a 1,1 0 1,0 -2,0 M 594.72 -56.44444444444444 m -0.5, 0 a 0.5,0.5 0 1,0 1,0 a 0.5,0.5 0 1,0 -1,0  M594.72 -56.44444444444444 L594.72 -56.44444444444444 606.72 -56.44444444444444 M600.72 -50.44444444444444 L600.72 -50.44444444444444 600.72 -62.44444444444444" id="h3224919174" class="r"></path><path d="M 901.6666666666666 -142.88888888888886 m -1, 0 a 1,1 0 1,0 2,0 a 1,1 0 1,0 -2,0 M 901.6666666666666 -142.88888888888886 m -0.5, 0 a 0.5,0.5 0 1,0 1,0 a 0.5,0.5 0 1,0 -1,0  M901.6666666666666 -142.88888888888886 L901.6666666666666 -142.88888888888886 889.6666666666666 -142.88888888888886 M 901.6666666666666 -136.88888888888886 m -1, 0 a 1,1 0 1,0 2,0 a 1,1 0 1,0 -2,0 M 901.6666666666666 -136.88888888888886 m -0.5, 0 a 0.5,0.5 0 1,0 1,0 a 0.5,0.5 0 1,0 -1,0  M901.6666666666666 -136.88888888888886 L901.6666666666666 -136.88888888888886 894.6666666666666 -142.88888888888886 901.6666666666666 -148.88888888888886 M 901.6666666666666 -148.88888888888886 m -1, 0 a 1,1 0 1,0 2,0 a 1,1 0 1,0 -2,0 M 901.6666666666666 -148.88888888888886 m -0.5, 0 a 0.5,0.5 0 1,0 1,0 a 0.5,0.5 0 1,0 -1,0  M889.6666666666666 -142.88888888888886 Q 816.87 -142.88888888888886, 744.07 36.22 T 598.47 215.33777777777746 M 586.47 215.33777777777746 m -1, 0 a 1,1 0 1,0 2,0 a 1,1 0 1,0 -2,0 M 586.47 215.33777777777746 m -0.5, 0 a 0.5,0.5 0 1,0 1,0 a 0.5,0.5 0 1,0 -1,0  M586.47 215.33777777777746 L586.47 215.33777777777746 598.47 215.33777777777746 M592.47 221.33777777777746 L592.47 221.33777777777746 592.47 209.33777777777746" id="h554095726" class="r"></path></g><g class="hrs"></g><g class="ts"><svg width="122.05" height="125" x="901.6666666666666" y="-224.88888888888886" id="h1991484534" class="t"><rect height="40" width="122.05" class="th"></rect><text x="13" y="25" class="tht">dept_man</text><rect height="85" width="122.05" class="t-bg"></rect><text x="13" y="61" class="tf pk">dept_no<tspan x="109.05" class="ty">int</tspan></text><path d="M7,14A2,2 0 0,1 5,12A2,2 0 0,1 7,10A2,2 0 0,1 9,12A2,2 0 0,1 7,14M12.65,10C11.83,7.67 9.61,6 7, 6A6, 6 0 0, 0 1, 12A6, 6 0 0, 0 7, 18C9.61, 18 11.83, 16.33 12.65, 14H17V18H21V14H23V10H12.65Z" class="i pk" transform="translate(76.376171875, 48) scale(0.65)"></path><text x="13" y="86" class="tf fk">emp_no<tspan x="109.05" class="ty">int</tspan></text><text x="13" y="111" class="tf">...</text></svg><svg width="163.83" height="125" x="430.88888888888886" y="-113.44444444444444" id="h475896179" class="t"><rect height="40" width="163.83" class="th"></rect><text x="13" y="25" class="tht">departments</text><rect height="85" width="163.83" class="t-bg"></rect><text x="13" y="61" class="tf pk">dept_no<tspan x="150.83" class="ty">int</tspan></text><path d="M7,14A2,2 0 0,1 5,12A2,2 0 0,1 7,10A2,2 0 0,1 9,12A2,2 0 0,1 7,14M12.65,10C11.83,7.67 9.61,6 7, 6A6, 6 0 0, 0 1, 12A6, 6 0 0, 0 7, 18C9.61, 18 11.83, 16.33 12.65, 14H17V18H21V14H23V10H12.65Z" class="i pk" transform="translate(118.15617187500001, 48) scale(0.65)"></path><text x="13" y="86" class="tf">dept_name<tspan x="150.83" class="ty">VARCHAR</tspan></text><text x="13" y="111" class="tf">...</text></svg><svg width="102.05" height="125" x="-79.55555555555559" y="-176.66666666666677" id="h2574555420" class="t"><rect height="40" width="102.05" class="th"></rect><text x="13" y="25" class="tht">dept_empl</text><rect height="85" width="102.05" class="t-bg"></rect><text x="13" y="61" class="tf fk">emp_no<tspan x="89.05" class="ty">int</tspan></text><text x="13" y="86" class="tf fk">dept_no<tspan x="89.05" class="ty">int</tspan></text><text x="13" y="111" class="tf">...</text></svg><svg width="122.46" height="125" x="118.8888888888889" y="541.5555555555557" id="h311790747" class="t"><rect height="40" width="122.46" class="th"></rect><text x="13" y="25" class="tht">titles</text><rect height="85" width="122.46" class="t-bg"></rect><text x="13" y="61" class="tf pk">title_id<tspan x="109.46" class="ty">int</tspan></text><path d="M7,14A2,2 0 0,1 5,12A2,2 0 0,1 7,10A2,2 0 0,1 9,12A2,2 0 0,1 7,14M12.65,10C11.83,7.67 9.61,6 7, 6A6, 6 0 0, 0 1, 12A6, 6 0 0, 0 7, 18C9.61, 18 11.83, 16.33 12.65, 14H17V18H21V14H23V10H12.65Z" class="i pk" transform="translate(76.786171875, 48) scale(0.65)"></path><text x="13" y="86" class="tf">title<tspan x="109.46" class="ty">VARCHAR</tspan></text><text x="13" y="111" class="tf">...</text></svg><svg width="159.81" height="250" x="426.6622222222224" y="158.33777777777746" id="h1639608377" class="t"><rect height="40" width="159.81" class="th"></rect><text x="13" y="25" class="tht">employees</text><rect height="210" width="159.81" class="t-bg"></rect><text x="13" y="61" class="tf pk">emp_no<tspan x="146.81" class="ty">int</tspan></text><path d="M7,14A2,2 0 0,1 5,12A2,2 0 0,1 7,10A2,2 0 0,1 9,12A2,2 0 0,1 7,14M12.65,10C11.83,7.67 9.61,6 7, 6A6, 6 0 0, 0 1, 12A6, 6 0 0, 0 7, 18C9.61, 18 11.83, 16.33 12.65, 14H17V18H21V14H23V10H12.65Z" class="i pk" transform="translate(114.136171875, 48) scale(0.65)"></path><text x="13" y="86" class="tf fk">emp_title_id<tspan x="146.81" class="ty">int</tspan></text><text x="13" y="111" class="tf">birth_date<tspan x="146.81" class="ty">DATE</tspan></text><text x="13" y="136" class="tf">first_name<tspan x="146.81" class="ty">VARCHAR</tspan></text><text x="13" y="161" class="tf">last_name<tspan x="146.81" class="ty">VARCHAR</tspan></text><text x="13" y="186" class="tf">sex<tspan x="146.81" class="ty">VARCHAR</tspan></text><text x="13" y="211" class="tf">hire_date<tspan x="146.81" class="ty">DATE</tspan></text><text x="13" y="236" class="tf">...</text></svg><svg width="114.03" height="125" x="789.9999999999998" y="589.5555555555557" id="h2472833127" class="t"><rect height="40" width="114.03" class="th"></rect><text x="13" y="25" class="tht">salaries</text><rect height="85" width="114.03" class="t-bg"></rect><text x="13" y="61" class="tf fk">emp_no<tspan x="101.03" class="ty">int</tspan></text><text x="13" y="86" class="tf">salary<tspan x="101.03" class="ty">money</tspan></text><text x="13" y="111" class="tf">...</text></svg></g></g><text class="qdbd-link" x="10" y="20">www.quickdatabasediagrams.com</text></svg>