<svg class="diagram-root" style="background: #f5f6f6" xmlns="http://www.w3.org/2000/svg" xmlns:xlink="http://www.w3.org/1999/xlink"><style>.diagram-root { font-family: "Helvetica Neue", sans-serif; font-size: 12px; } .t { overflow: visible; } .t-bg { y: 40; fill: #fff;   } .th { fill: #005aa0;   } .tht { fill: #fff; font-size: 14px;  } .tf { fill: #323c46; overflow: visible; } .tf.pk { fill: #005aa0; font-weight: bold; } .tf.fk { font-weight: bold; } .ty { fill: #adb1b5; font-weight: normal; text-anchor: end; } .r { fill: transparent; stroke: #c3c3c3; stroke-width: 1; } .l { stroke: 1; } .i { fill: #c2c7ce; stroke: #c2c7ce; } .i.ix { fill: #afb3b6; stroke: #000; } .fa { fill: transparent; overflow: visible; } .fa .bg.hover { fill: #f7f7f7; } .c { cy: 12; r: 4; stroke: #d2d2dc; fill: #d2d2dc; } .hr { fill: transparent; stroke: #323c46; stroke-opacity: 0.035; stroke-width: 13; } .dc { stroke: #fa5a3c; fill: #fa5a3c; } .x { stroke: white; stroke-width: 1; } .hl .th { fill: #1b9bff; } .hl .tht {  } .fhl .bg { fill: #e7f4ff; } .fhls .bg {  } .r.hl { stroke: #1b9bff; } .dim { opacity: 0.25; }</style><g class="drawing-wrapper" transform="translate(2, 18) scale(1,1)"><g class="rs"></g><g class="hrs"></g><g class="ts"><svg width="118.72" height="100" x="30" y="30" id="h475896179" class="t"><rect height="40" width="118.72" class="th"></rect><text x="13" y="25" class="tht">departments</text><rect height="60" width="118.72" class="t-bg"></rect><text x="13" y="61" class="tf">dept_no<tspan x="105.72" class="ty">int</tspan></text><text x="13" y="86" class="tf">dept_name<tspan x="105.72" class="ty">int</tspan></text></svg><svg width="194.49" height="225" x="28" y="220" id="h2421874875" class="t"><rect height="40" width="194.49" class="th"></rect><text x="13" y="25" class="tht">Employee</text><rect height="185" width="194.49" class="t-bg"></rect><text x="13" y="61" class="tf pk">emp_no<tspan x="181.49" class="ty">INT?</tspan></text><path d="M7,14A2,2 0 0,1 5,12A2,2 0 0,1 7,10A2,2 0 0,1 9,12A2,2 0 0,1 7,14M12.65,10C11.83,7.67 9.61,6 7, 6A6, 6 0 0, 0 1, 12A6, 6 0 0, 0 7, 18C9.61, 18 11.83, 16.33 12.65, 14H17V18H21V14H23V10H12.65Z" class="i pk" transform="translate(135.48609375, 48) scale(0.65)"></path><text x="13" y="86" class="tf">emp_title_id<tspan x="181.49" class="ty">int</tspan></text><text x="13" y="111" class="tf">birth_date<tspan x="181.49" class="ty">DATE</tspan></text><text x="13" y="136" class="tf">first_name<tspan x="181.49" class="ty">VARCHAR(50)?</tspan></text><text x="13" y="161" class="tf">last_name<tspan x="181.49" class="ty">vARCHAR(50?</tspan></text><text x="13" y="186" class="tf">sex<tspan x="181.49" class="ty">varchar(1)</tspan></text><text x="13" y="211" class="tf">hire_date<tspan x="181.49" class="ty">DATE?</tspan></text></svg><svg width="118.72" height="100" x="344" y="80" id="h1676682957" class="t"><rect height="40" width="118.72" class="th"></rect><text x="13" y="25" class="tht">dept_manager</text><rect height="60" width="118.72" class="t-bg"></rect><text x="13" y="61" class="tf">dept_no<tspan x="105.72" class="ty">int</tspan></text><text x="13" y="86" class="tf">dept_name<tspan x="105.72" class="ty">int</tspan></text></svg><svg width="93.36" height="100" x="573" y="57" id="h311790747" class="t"><rect height="40" width="93.36" class="th"></rect><text x="13" y="25" class="tht">titles</text><rect height="60" width="93.36" class="t-bg"></rect><text x="13" y="61" class="tf">title_id<tspan x="80.36" class="ty">int</tspan></text><text x="13" y="86" class="tf">title<tspan x="80.36" class="ty">int</tspan></text></svg><svg width="102.04" height="100" x="624" y="328" id="h2472833127" class="t"><rect height="40" width="102.04" class="th"></rect><text x="13" y="25" class="tht">salaries</text><rect height="60" width="102.04" class="t-bg"></rect><text x="13" y="61" class="tf">emp_no<tspan x="89.04" class="ty">int</tspan></text><text x="13" y="86" class="tf">salary<tspan x="89.04" class="ty">int</tspan></text></svg><svg width="122.05" height="100" x="76" y="544" id="h2574555420" class="t"><rect height="40" width="122.05" class="th"></rect><text x="13" y="25" class="tht">dept_empl</text><rect height="60" width="122.05" class="t-bg"></rect><text x="13" y="61" class="tf pk">dept_no<tspan x="109.05" class="ty">int</tspan></text><path d="M7,14A2,2 0 0,1 5,12A2,2 0 0,1 7,10A2,2 0 0,1 9,12A2,2 0 0,1 7,14M12.65,10C11.83,7.67 9.61,6 7, 6A6, 6 0 0, 0 1, 12A6, 6 0 0, 0 7, 18C9.61, 18 11.83, 16.33 12.65, 14H17V18H21V14H23V10H12.65Z" class="i pk" transform="translate(76.376171875, 48) scale(0.65)"></path><text x="13" y="86" class="tf fk">emp_no<tspan x="109.05" class="ty">int</tspan></text></svg></g></g><text class="qdbd-link" x="10" y="20">www.quickdatabasediagrams.com</text></svg>