<svg class="diagram-root" style="background: #f5f6f6" xmlns="http://www.w3.org/2000/svg" xmlns:xlink="http://www.w3.org/1999/xlink"><style>.diagram-root { font-family: "Helvetica Neue", sans-serif; font-size: 12px; } .t { overflow: visible; } .t-bg { y: 40; fill: #fff;   } .th { fill: #005aa0;   } .tht { fill: #fff; font-size: 14px;  } .tf { fill: #323c46; overflow: visible; } .tf.pk { fill: #005aa0; font-weight: bold; } .tf.fk { font-weight: bold; } .ty { fill: #adb1b5; font-weight: normal; text-anchor: end; } .r { fill: transparent; stroke: #c3c3c3; stroke-width: 1; } .l { stroke: 1; } .i { fill: #c2c7ce; stroke: #c2c7ce; } .i.ix { fill: #afb3b6; stroke: #000; } .fa { fill: transparent; overflow: visible; } .fa .bg.hover { fill: #f7f7f7; } .c { cy: 12; r: 4; stroke: #d2d2dc; fill: #d2d2dc; } .hr { fill: transparent; stroke: #323c46; stroke-opacity: 0.035; stroke-width: 13; } .dc { stroke: #fa5a3c; fill: #fa5a3c; } .x { stroke: white; stroke-width: 1; } .hl .th { fill: #1b9bff; } .hl .tht {  } .fhl .bg { fill: #e7f4ff; } .fhls .bg {  } .r.hl { stroke: #1b9bff; } .dim { opacity: 0.25; }</style><g class="drawing-wrapper" transform="translate(-24, -1) scale(1,1)"><g class="rs"><path d="M 420 527 m -1, 0 a 1,1 0 1,0 2,0 a 1,1 0 1,0 -2,0 M 420 527 m -0.5, 0 a 0.5,0.5 0 1,0 1,0 a 0.5,0.5 0 1,0 -1,0  M420 527 L420 527 408 527 M414 533 L414 533 414 521 M408 527 Q 346.01 527, 284.02 402 T 160.05 277 M 148.05 277 m -1, 0 a 1,1 0 1,0 2,0 a 1,1 0 1,0 -2,0 M 148.05 277 m -0.5, 0 a 0.5,0.5 0 1,0 1,0 a 0.5,0.5 0 1,0 -1,0  M148.05 277 L148.05 277 160.05 277 M154.05 283 L154.05 283 154.05 271" id="h2739598464" class="r"></path><path d="M 579.81 527 m -1, 0 a 1,1 0 1,0 2,0 a 1,1 0 1,0 -2,0 M 579.81 527 m -0.5, 0 a 0.5,0.5 0 1,0 1,0 a 0.5,0.5 0 1,0 -1,0  M579.81 527 L579.81 527 591.81 527 M585.81 533 L585.81 533 585.81 521 M591.81 527 Q 629.61 527, 667.41 364 T 743 201 M 755 201 m -1, 0 a 1,1 0 1,0 2,0 a 1,1 0 1,0 -2,0 M 755 201 m -0.5, 0 a 0.5,0.5 0 1,0 1,0 a 0.5,0.5 0 1,0 -1,0  M755 201 L755 201 743 201 M749 207 L749 207 749 195" id="h3770386641" class="r"></path><path d="M 579.81 527 m -1, 0 a 1,1 0 1,0 2,0 a 1,1 0 1,0 -2,0 M 579.81 527 m -0.5, 0 a 0.5,0.5 0 1,0 1,0 a 0.5,0.5 0 1,0 -1,0  M579.81 527 L579.81 527 591.81 527 M585.81 533 L585.81 533 585.81 521 M591.81 527 C 888.562 527, 796.03 711, 746.03 711 M 734.03 711 m -1, 0 a 1,1 0 1,0 2,0 a 1,1 0 1,0 -2,0 M 734.03 711 m -0.5, 0 a 0.5,0.5 0 1,0 1,0 a 0.5,0.5 0 1,0 -1,0  M734.03 711 L734.03 711 746.03 711 M740.03 717 L740.03 717 740.03 705" id="h133127050" class="r"></path><path d="M 420 527 m -1, 0 a 1,1 0 1,0 2,0 a 1,1 0 1,0 -2,0 M 420 527 m -0.5, 0 a 0.5,0.5 0 1,0 1,0 a 0.5,0.5 0 1,0 -1,0  M420 527 L420 527 408 527 M414 533 L414 533 414 521 M408 527 Q 367.12 527, 326.23 590 T 244.46 653 M 232.46 653 m -1, 0 a 1,1 0 1,0 2,0 a 1,1 0 1,0 -2,0 M 232.46 653 m -0.5, 0 a 0.5,0.5 0 1,0 1,0 a 0.5,0.5 0 1,0 -1,0  M232.46 653 L232.46 653 244.46 653 M238.46 659 L238.46 659 238.46 647" id="h1615141195" class="r"></path><path d="M 465.83 138 m -1, 0 a 1,1 0 1,0 2,0 a 1,1 0 1,0 -2,0 M 465.83 138 m -0.5, 0 a 0.5,0.5 0 1,0 1,0 a 0.5,0.5 0 1,0 -1,0  M465.83 138 L465.83 138 477.83 138 M471.83 144 L471.83 144 471.83 132 M477.83 138 C 710.1979999999999 138, 641.81 527, 591.81 527 M 579.81 527 m -1, 0 a 1,1 0 1,0 2,0 a 1,1 0 1,0 -2,0 M 579.81 527 m -0.5, 0 a 0.5,0.5 0 1,0 1,0 a 0.5,0.5 0 1,0 -1,0  M579.81 527 L579.81 527 591.81 527 M585.81 533 L585.81 533 585.81 521" id="h2876614111" class="r"></path><path d="M 465.83 138 m -1, 0 a 1,1 0 1,0 2,0 a 1,1 0 1,0 -2,0 M 465.83 138 m -0.5, 0 a 0.5,0.5 0 1,0 1,0 a 0.5,0.5 0 1,0 -1,0  M465.83 138 L465.83 138 477.83 138 M471.83 144 L471.83 144 471.83 132 M477.83 138 Q 544.13 138, 610.42 169.5 T 743 201 M 755 201 m -1, 0 a 1,1 0 1,0 2,0 a 1,1 0 1,0 -2,0 M 755 201 m -0.5, 0 a 0.5,0.5 0 1,0 1,0 a 0.5,0.5 0 1,0 -1,0  M755 201 L755 201 743 201 M749 207 L749 207 749 195" id="h2076776228" class="r"></path><path d="M 302 138 m -1, 0 a 1,1 0 1,0 2,0 a 1,1 0 1,0 -2,0 M 302 138 m -0.5, 0 a 0.5,0.5 0 1,0 1,0 a 0.5,0.5 0 1,0 -1,0  M302 138 L302 138 290 138 M296 144 L296 144 296 132 M290 138 Q 257.52 138, 225.03 207.5 T 160.05 277 M 148.05 277 m -1, 0 a 1,1 0 1,0 2,0 a 1,1 0 1,0 -2,0 M 148.05 277 m -0.5, 0 a 0.5,0.5 0 1,0 1,0 a 0.5,0.5 0 1,0 -1,0  M148.05 277 L148.05 277 160.05 277 M154.05 283 L154.05 283 154.05 271" id="h3425584194" class="r"></path></g><g class="hrs"></g><g class="ts"><svg width="102.05" height="125" x="46" y="170" id="h2574555420" class="t"><rect height="40" width="102.05" class="th"></rect><text x="13" y="25" class="tht">dept_empl</text><rect height="85" width="102.05" class="t-bg"></rect><text x="13" y="61" class="tf fk">emp_no<tspan x="89.05" class="ty">int</tspan></text><text x="13" y="86" class="tf fk">dept_no<tspan x="89.05" class="ty">int</tspan></text><text x="13" y="111" class="tf">...</text></svg><svg width="114.03" height="125" x="620" y="604" id="h2472833127" class="t"><rect height="40" width="114.03" class="th"></rect><text x="13" y="25" class="tht">salaries</text><rect height="85" width="114.03" class="t-bg"></rect><text x="13" y="61" class="tf">emp_no<tspan x="101.03" class="ty">int</tspan></text><text x="13" y="86" class="tf">salary<tspan x="101.03" class="ty">money</tspan></text><text x="13" y="111" class="tf">...</text></svg><svg width="163.83" height="125" x="302" y="31" id="h475896179" class="t"><rect height="40" width="163.83" class="th"></rect><text x="13" y="25" class="tht">departments</text><rect height="85" width="163.83" class="t-bg"></rect><text x="13" y="61" class="tf">dept_no<tspan x="150.83" class="ty">int</tspan></text><text x="13" y="86" class="tf">dept_name<tspan x="150.83" class="ty">VARCHAR</tspan></text><text x="13" y="111" class="tf">...</text></svg><svg width="122.46" height="125" x="110" y="546" id="h311790747" class="t"><rect height="40" width="122.46" class="th"></rect><text x="13" y="25" class="tht">titles</text><rect height="85" width="122.46" class="t-bg"></rect><text x="13" y="61" class="tf">title_id<tspan x="109.46" class="ty">int</tspan></text><text x="13" y="86" class="tf">title<tspan x="109.46" class="ty">VARCHAR</tspan></text><text x="13" y="111" class="tf">...</text></svg><svg width="159.81" height="250" x="420" y="295" id="h1639608377" class="t"><rect height="40" width="159.81" class="th"></rect><text x="13" y="25" class="tht">employees</text><rect height="210" width="159.81" class="t-bg"></rect><text x="13" y="61" class="tf pk">emp_no<tspan x="146.81" class="ty">int</tspan></text><path d="M7,14A2,2 0 0,1 5,12A2,2 0 0,1 7,10A2,2 0 0,1 9,12A2,2 0 0,1 7,14M12.65,10C11.83,7.67 9.61,6 7, 6A6, 6 0 0, 0 1, 12A6, 6 0 0, 0 7, 18C9.61, 18 11.83, 16.33 12.65, 14H17V18H21V14H23V10H12.65Z" class="i pk" transform="translate(114.136171875, 48) scale(0.65)"></path><text x="13" y="86" class="tf">emp_title_id<tspan x="146.81" class="ty">int</tspan></text><text x="13" y="111" class="tf">birth_date<tspan x="146.81" class="ty">DATE</tspan></text><text x="13" y="136" class="tf">first_name<tspan x="146.81" class="ty">VARCHAR</tspan></text><text x="13" y="161" class="tf">last_name<tspan x="146.81" class="ty">VARCHAR</tspan></text><text x="13" y="186" class="tf">sex<tspan x="146.81" class="ty">VARCHAR</tspan></text><text x="13" y="211" class="tf">hire_date<tspan x="146.81" class="ty">DATE</tspan></text><text x="13" y="236" class="tf">...</text></svg><svg width="102.05" height="125" x="755" y="94" id="h1991484534" class="t"><rect height="40" width="102.05" class="th"></rect><text x="13" y="25" class="tht">dept_man</text><rect height="85" width="102.05" class="t-bg"></rect><text x="13" y="61" class="tf fk">dept_no<tspan x="89.05" class="ty">int</tspan></text><text x="13" y="86" class="tf fk">emp_no<tspan x="89.05" class="ty">int</tspan></text><text x="13" y="111" class="tf">...</text></svg></g></g><text class="qdbd-link" x="10" y="20">www.quickdatabasediagrams.com</text></svg>